<?xml version="1.0" standalone="no"?>
<!DOCTYPE svg PUBLIC "-//W3C//DTD SVG 20010904//EN"
 "http://www.w3.org/TR/2001/REC-SVG-20010904/DTD/svg10.dtd">
<svg version="1.0" xmlns="http://www.w3.org/2000/svg"
 width="512.000000pt" height="512.000000pt" viewBox="0 0 512.000000 512.000000"
 preserveAspectRatio="xMidYMid meet">
<metadata>
Created by potrace 1.14, written by Peter Selinger 2001-2017
</metadata>
<g transform="translate(0.000000,512.000000) scale(0.100000,-0.100000)"
fill="#000000" stroke="none">
<path d="M1340 5111 c-96 -24 -188 -123 -204 -217 -2 -16 -5 -149 -5 -296 l-1
-268 -252 1 c-210 0 -261 -2 -303 -16 -73 -24 -126 -58 -172 -108 -78 -85
-109 -173 -108 -308 l0 -76 -59 -11 c-101 -19 -186 -93 -221 -192 -11 -30 -14
-75 -12 -159 3 -122 10 -147 63 -218 l24 -32 -35 -46 c-19 -26 -35 -50 -36
-53 0 -4 -3 -16 -7 -27 -3 -11 -6 -76 -6 -145 -1 -121 0 -127 29 -179 48 -86
145 -151 226 -151 16 0 30 -3 30 -7 1 -5 2 -339 3 -744 1 -710 2 -738 20 -758
11 -12 27 -21 38 -21 16 0 18 -9 18 -80 0 -71 -2 -80 -18 -80 -11 0 -27 -9
-38 -21 -17 -19 -19 -39 -20 -218 0 -128 4 -217 13 -256 40 -181 175 -334 353
-397 l65 -23 1835 0 1835 0 64 23 c172 62 299 197 347 369 15 52 17 173 19
1128 2 589 3 1073 4 1076 0 4 20 9 44 11 96 11 190 86 225 179 15 40 20 80 20
152 1 113 -14 172 -59 230 l-30 37 25 33 c52 68 63 113 62 242 -1 102 -4 127
-23 165 -44 89 -127 150 -223 165 l-45 7 0 76 c1 93 -8 140 -40 209 -45 99
-139 177 -256 213 -22 6 -136 11 -288 12 -178 0 -251 4 -251 12 0 6 -2 137 -3
291 l-2 280 -30 54 c-30 54 -85 106 -140 131 -20 9 -83 15 -183 18 -139 4
-155 2 -174 -14 -11 -11 -24 -28 -28 -40 -7 -18 -16 -20 -77 -18 -86 2 -83 1
-83 18 0 8 -12 24 -26 35 -27 21 -30 21 -953 20 -509 -1 -937 -4 -951 -8z
m2083 -550 c4 -1 7 -53 7 -116 l0 -115 -870 1 -870 1 0 112 c0 62 2 115 4 117
3 3 1699 3 1729 0z"/>
</g>
</svg>
